#!OML:ASF H:\LiuWeirdWalks\Patient Classification 1\Patient 1\Session 1\male.ASF
:FULLY-SPECIFIED
:DEGREES
1325
root 2.78607 18.1694 33.7176 3.55085 5.32131 1.10956
lowerback 2.40475 -1.66382 -5.32216
upperback 0.0721657 -2.32805 3.29755
thorax -0.924499 -1.13966 6.48925
lowerneck -25.6624 1.49633 4.00603
upperneck 29.9704 2.63348 -6.12137
head 14.8542 0.674405 -2.70253
rclavicle 1.00883e-014 -1.90833e-014
rhumerus -38.0472 -21.8035 -63.5046
rradius 30.8998
rwrist -6.3833
rhand -15.2502 0.230382
rfingers 7.12502
rthumb 10.9234 -29.4655
lclavicle 1.00883e-014 -1.90833e-014
lhumerus -40.0271 26.3996 75.2757
lradius 29.7576
lwrist -1.81473
lhand -14.3577 0.625078
lfingers 7.12502
lthumb 11.7841 30.2736
rfemur -9.7169 -1.0261 13.9157
rtibia 26.8505
rfoot -10.3065 -22.0858
rtoes -3.58907
lfemur -4.8632 -3.92009 -18.6635
ltibia 18.0322
lfoot -7.99766 13.5329
ltoes -9.54574
1326
root 2.77954 18.1704 33.7165 3.66685 5.25446 1.38972
lowerback 2.36132 -1.62584 -5.66214
upperback -0.00925781 -2.28592 3.23408
thorax -0.980233 -1.1128 6.61673
lowerneck -25.6855 1.46131 3.94096
upperneck 29.856 2.5905 -6.08316
head 14.8028 0.653961 -2.68019
rclavicle -9.59136e-015 -1.59028e-015
rhumerus -38.1771 -22.5305 -63.853
rradius 30.0893
rwrist -6.11712
rhand -15.4182 0.238589
rfingers 7.12502
rthumb 10.7614 -29.4658
lclavicle -9.59136e-015 -1.59028e-015
lhumerus -39.8629 26.9857 75.4852
lradius 28.8299
lwrist -2.14073
lhand -14.4186 0.665376
lfingers 7.12502
lthumb 11.7255 30.3172
rfemur -9.94119 -0.799109 13.6443
rtibia 27.0476
rfoot -10.4024 -22.2644
rtoes -3.50033
lfemur -4.88752 -3.93643 -18.9453
ltibia 17.8472
lfoot -7.86089 13.5785
ltoes -9.54358
1327
root 2.77341 18.1708 33.7165 3.74825 5.19477 1.61072
lowerback 2.33381 -1.58614 -5.92993
upperback -0.0835473 -2.24011 3.18146
thorax -1.04093 -1.0841 6.71464
lowerneck -25.6928 1.42728 3.8858
upperneck 29.739 2.55057 -6.06017
head 14.7477 0.633987 -2.66518
rclavicle 2.10215e-014 -1.35174e-014
rhumerus -38.313 -23.2534 -64.1261
rradius 29.2573
rwrist -5.76395
rhand -15.5112 0.318661
rfingers 7.12502
rthumb 10.6717 -29.3903
lclavicle 2.10215e-014 -1.35174e-014
lhumerus -39.6983 27.491 75.6571
lradius 27.9032
lwrist -2.51657
lhand -14.4382 0.661207
lfingers 7.12502
lthumb 11.7066 30.3141
rfemur -10.112 -0.603255 13.4331
rtibia 27.2121
rfoot -10.4799 -22.4167
rtoes -3.43124
lfemur -4.88606 -3.95255 -19.1654
ltibia 17.6868
lfoot -7.7532 13.6201
ltoes -9.52724
1328
root 2.76837 18.1708 33.7187 3.81164 5.14907 1.84409
lowerback 2.27494 -1.48841 -6.08902
upperback -0.111288 -2.11221 3.07494
thorax -1.05546 -1.01771 6.68919
lowerneck -25.8458 1.31443 3.73066
upperneck 29.6591 2.40797 -5.95653
head 14.7309 0.568719 -2.62203
rclavicle 1.86361e-014 -2.54444e-014
rhumerus -38.473 -24.173 -64.2843
rradius 28.4335
rwrist -5.39495
rhand -15.5865 0.384165
rfingers 7.12502
rthumb 10.599 -29.3286
lclavicle 1.86361e-014 -2.54444e-014
lhumerus -39.3803 27.79 75.8911
lradius 26.9603
lwrist -3.00237
lhand -14.4091 0.591521
lfingers 7.12502
lthumb 11.7346 30.2428
rfemur -10.2242 -0.477765 13.1966
rtibia 27.3247
rfoot -10.5365 -22.5125
rtoes -3.38939
lfemur -4.87882 -3.976 -19.4064
ltibia 17.5745
lfoot -7.68791 13.6584
ltoes -9.50222
1329
root 2.76592 18.1705 33.7234 3.74281 5.13242 1.75294
lowerback 2.29137 -1.4086 -5.90075
upperback -0.114862 -2.00136 3.05675
thorax -1.09314 -0.961511 6.56019
lowerneck -25.951 1.22219 3.60689
upperneck 29.5697 2.29361 -5.88186
head 14.7027 0.515538 -2.59023
rclavicle 3.22528e-014 -3.10104e-014
rhumerus -38.6226 -25.0006 -64.4075
rradius 27.6047
rwrist -4.99849
rhand -15.6167 0.457995
rfingers 7.12502
rthumb 10.5699 -29.2562
lclavicle 3.22528e-014 -3.10104e-014
lhumerus -39.1214 28.0572 76.0592
lradius 26.0615
lwrist -3.55469
lhand -14.2949 0.538205
lfingers 7.12502
lthumb 11.8447 30.1832
rfemur -10.1718 -0.381785 13.3156
rtibia 27.3749
rfoot -10.5818 -22.5893
rtoes -3.3644
lfemur -4.7712 -3.98624 -19.2987
ltibia 17.518
lfoot -7.68799 13.6755
ltoes -9.46852
1330
root 2.76499 18.1695 33.7297 3.66696 5.13277 1.67183
lowerback 2.28556 -1.35776 -5.73436
upperback -0.101549 -1.92844 3.04723
thorax -1.09322 -0.926191 6.45257
lowerneck -26.0711 1.16066 3.51563
upperneck 29.4764 2.21858 -5.83227
head 14.6798 0.478971 -2.56679
rclavicle 1.60022e-014 -3.97569e-014
rhumerus -38.6885 -25.7145 -64.551
rradius 26.7749
rwrist -4.64375
rhand -15.6617 0.507022
rfingers 7.12502
rthumb 10.5265 -29.2094
lclavicle 1.60022e-014 -3.97569e-014
lhumerus -38.8751 28.3225 76.1859
lradius 25.2166
lwrist -4.13068
lhand -14.1292 0.444986
lfingers 7.12502
lthumb 12.0045 30.0807
rfemur -10.085 -0.357707 13.4128
rtibia 27.3965
rfoot -10.6153 -22.6138
rtoes -3.3633
lfemur -4.65848 -3.99367 -19.209
ltibia 17.4879
lfoot -7.71234 13.6777
ltoes -9.44637
1331
root 2.7643 18.1684 33.7354 3.62702 5.13136 1.68062
lowerback 2.2514 -1.42093 -5.83355
upperback -0.0660896 -2.01313 3.09706
thorax -1.0191 -0.971941 6.56213
lowerneck -26.2544 1.2563 3.60079
upperneck 29.381 2.34511 -5.92748
head 14.6877 0.526091 -2.59458
rclavicle 3.63279e-014 -1.19271e-014
rhumerus -38.478 -26.1268 -64.8397
rradius 25.9066
rwrist -4.20501
rhand -15.6968 0.569179
rfingers 7.12502
rthumb 10.4926 -29.149
lclavicle 3.63279e-014 -1.19271e-014
lhumerus -38.7122 28.8644 76.1864
lradius 24.4783
lwrist -4.71302
lhand -13.8984 0.356162
lfingers 7.12502
lthumb 12.2271 29.9788
rfemur -10.0237 -0.350905 13.4071
rtibia 27.4005
rfoot -10.6342 -22.6238
rtoes -3.35711
lfemur -4.58874 -4.00093 -19.2183
ltibia 17.4777
lfoot -7.73785 13.6793
ltoes -9.43934
1332
root 2.7648 18.1668 33.7418 3.60213 5.13211 1.75195
lowerback 2.2011 -1.5105 -6.01571
upperback -0.0555913 -2.13474 3.13833
thorax -0.952798 -1.03498 6.71084
lowerneck -26.3437 1.37789 3.72471
upperneck 29.2743 2.49959 -6.03865
head 14.6734 0.588431 -2.62883
rclavicle -1.95306e-014 4.77083e-015
rhumerus -38.265 -26.4134 -65.1159
rradius 25.0317
rwrist -3.65155
rhand -15.6899 0.610372
rfingers 7.12502
rthumb 10.4993 -29.1074
lclavicle -1.95306e-014 4.77083e-015
lhumerus -38.6525 29.3895 76.102
lradius 23.8343
lwrist -5.33128
lhand -13.5784 0.283055
lfingers 7.12502
lthumb 12.5356 29.887
rfemur -9.98017 -0.383169 13.325
rtibia 27.4303
rfoot -10.6693 -22.6012
rtoes -3.3599
lfemur -4.50804 -3.99735 -19.3007
ltibia 17.4357
lfoot -7.75313 13.6686
ltoes -9.44593
1333
root 2.76632 18.1645 33.7493 3.57456 5.15271 1.85465
lowerback 2.14128 -1.64418 -6.2699
upperback -0.0379439 -2.31635 3.19085
thorax -0.859604 -1.12936 6.9131
lowerneck -26.4234 1.54454 3.89975
upperneck 29.1858 2.70778 -6.17767
head 14.6708 0.675406 -2.67317
rclavicle -1.80894e-014 -2.38542e-015
rhumerus -37.9719 -26.5917 -65.4105
rradius 24.1409
rwrist -2.97017
rhand -15.6467 0.68692
rfingers 7.12502
rthumb 10.541 -29.0288
lclavicle -1.80894e-014 -2.38542e-015
lhumerus -38.63 29.9093 75.9777
lradius 23.2761
lwrist -5.91025
lhand -13.2053 0.217135
lfingers 7.12502
lthumb 12.8953 29.7987
rfemur -9.93037 -0.477271 13.1998
rtibia 27.4816
rfoot -10.72 -22.5404
rtoes -3.38132
lfemur -4.40153 -3.98573 -19.4226
ltibia 17.3678
lfoot -7.7653 13.6339
ltoes -9.47551
1334
root 2.76807 18.1617 33.7575 3.52883 5.17884 1.92383
lowerback 2.09286 -1.74692 -6.43592
upperback -0.031128 -2.45495 3.22529
thorax -0.793906 -1.20128 7.04509
lowerneck -26.4647 1.66532 4.02287
upperneck 29.1247 2.85387 -6.25908
head 14.6664 0.739058 -2.69742
rclavicle -1.635e-014 3.81667e-014
rhumerus -37.7413 -26.7802 -65.6397
rradius 23.2675
rwrist -2.2359
rhand -15.5638 0.759597
rfingers 7.12502
rthumb 10.621 -28.952
lclavicle -1.635e-014 3.81667e-014
lhumerus -38.5996 30.224 75.8833
lradius 22.7856
lwrist -6.45533
lhand -12.7461 0.24489
lfingers 7.12502
lthumb 13.3379 29.798
rfemur -9.86119 -0.580262 13.1107
rtibia 27.5385
rfoot -10.7814 -22.4746
rtoes -3.40752
lfemur -4.27066 -3.96479 -19.509
ltibia 17.2923
lfoot -7.77627 13.5901
ltoes -9.50822
